<svg width="865" height="503" viewBox="0 0 865 503" fill="none" xmlns="http://www.w3.org/2000/svg">
<path d="M461.722 389.596C467.367 389.596 471.943 385.02 471.943 379.375V124.58C471.943 118.657 466.924 113.974 461.015 114.384L424.219 116.936C418.861 117.308 414.705 121.762 414.705 127.133V379.375C414.705 385.02 419.281 389.596 424.926 389.596H461.722Z" fill="#4F40AA"/>
<path d="M386.086 379.375C386.086 385.02 381.51 389.596 375.865 389.596H339.069C333.424 389.596 328.847 385.02 328.847 379.375V163.945C328.847 158.576 333.002 154.122 338.358 153.749L375.154 151.184C381.064 150.772 386.086 155.455 386.086 161.38V379.375Z" fill="#4F40AA"/>
<path fill-rule="evenodd" clip-rule="evenodd" d="M183.796 264.099C178.055 266.056 171.516 263.358 169.492 257.64L161.062 233.821C159.401 229.126 161.351 223.874 165.935 221.929C169.669 220.344 173.793 218.875 178.308 217.522C186.453 215.153 194.956 213.257 203.82 211.836C212.922 210.415 221.067 209.704 228.253 209.704C243.105 209.704 256.04 212.547 267.059 218.232C278.318 223.918 286.942 231.854 292.93 242.04C299.158 252.227 302.273 264.072 302.273 277.575V377.155C302.273 382.8 297.696 387.376 292.051 387.376H276.19C272.935 387.376 269.874 385.825 267.949 383.201L265.271 379.551C261.398 374.271 253.649 374.003 248.628 378.207C245.231 381.051 241.673 383.515 237.955 385.599C230.768 389.626 223.103 391.64 214.958 391.64C193.399 391.64 177.35 386.31 166.81 375.649C156.27 364.989 151 351.012 151 333.719C151 315.478 157.228 302.212 169.684 293.92C182.141 285.392 198.31 281.128 218.192 281.128H244.461C244.971 281.128 245.331 280.627 245.168 280.143C245.15 280.089 245.138 280.033 245.133 279.977C244.402 272.675 241.77 267.137 237.236 263.361C232.924 259.334 227.295 257.32 220.348 257.32C213.162 257.32 205.137 258.386 196.274 260.518C191.811 261.592 187.652 262.785 183.796 264.099ZM203.82 320.216C200.226 324.006 198.43 328.389 198.43 333.364C198.43 336.206 199.149 338.812 200.586 341.181C202.263 343.55 204.299 345.445 206.694 346.867C209.329 348.288 212.204 348.999 215.318 348.999C220.348 348.999 225.498 347.933 230.768 345.801C234.761 344.006 238.617 341.667 242.335 338.784C244.64 336.996 245.86 334.182 245.86 331.265V324.751C245.86 319.107 241.284 314.53 235.639 314.53H218.552C212.323 314.53 207.413 316.426 203.82 320.216Z" fill="#4F40AA"/>
<path d="M750.878 220.87C753.386 253.709 716.395 279.14 711.139 272.27C708.703 269.086 710.885 266.952 713.619 264.278C716.783 261.183 720.688 257.365 719.026 250.356C717.541 244.094 711.167 242.289 703.968 240.251C696.151 238.038 687.36 235.549 682.799 226.778C674.037 209.929 682.991 189.549 703.688 184.73C724.385 179.911 748.37 188.032 750.878 220.87Z" fill="#4F40AA"/>
<path fill-rule="evenodd" clip-rule="evenodd" d="M535.268 381.173C549.348 388.032 565.657 391.462 584.195 391.462C602.498 391.462 618.69 387.914 632.769 380.818C647.083 373.722 658.347 363.433 666.56 349.95C674.773 336.468 678.88 320.384 678.88 301.698C678.88 282.066 674.891 265.508 666.912 252.026C658.934 238.307 647.905 227.9 633.825 220.804C619.746 213.708 603.437 210.16 584.899 210.16C566.83 210.16 550.639 213.826 536.324 221.158C522.245 228.491 511.099 238.898 502.886 252.381C494.907 265.863 490.801 282.184 490.566 301.343C490.566 320.502 494.438 336.941 502.182 350.66C510.16 364.142 521.189 374.313 535.268 381.173ZM604.258 340.371C598.861 343.919 592.291 345.693 584.547 345.693C577.038 345.693 570.467 343.801 564.836 340.016C559.438 336.232 555.214 331.028 552.164 324.405C549.113 317.545 547.588 309.858 547.588 301.343C547.588 292.118 549.113 284.194 552.164 277.571C555.214 270.949 559.556 265.745 565.188 261.96C571.054 258.176 577.742 256.284 585.251 256.284C592.76 256.284 599.213 258.294 604.61 262.315C610.242 266.1 614.466 271.422 617.282 278.281C620.332 285.14 621.858 292.946 621.858 301.698C621.858 310.449 620.332 318.137 617.282 324.76C614.231 331.383 609.89 336.586 604.258 340.371Z" fill="#4F40AA"/>
</svg>
