<svg width="379" height="101" viewBox="0 0 379 101" fill="none" xmlns="http://www.w3.org/2000/svg">
<path d="M30.1226 57.327H41.9146C41.5126 66.372 34.7456 72.737 24.3606 72.737C13.3056 72.737 5.33256 65.702 5.33256 55.317C5.33256 44.999 12.8366 37.964 22.4846 37.964C25.7006 37.964 28.4476 38.768 30.6586 40.376V38.902H41.8476V53.307H30.1896C29.6536 50.493 27.1746 48.617 24.0926 48.617C20.6086 48.617 17.6606 51.431 17.6606 55.317C17.6606 59.27 20.5416 62.017 24.1596 62.017C27.1746 62.017 29.5866 60.208 30.1226 57.327ZM89.2595 60.811V72H71.8395V55.116C71.8395 51.23 69.7625 49.957 67.4845 49.957C66.0105 49.957 64.6705 50.56 63.3305 51.9V60.811H67.2835V72H45.9105V60.811H49.8635V35.552H45.9105V24.43H63.3305V41.046C65.9435 38.835 68.5565 37.897 71.8395 37.897C79.6785 37.897 85.3065 42.922 85.3065 51.967V60.811H89.2595ZM130.905 50.024V60.811H134.858V72H117.371V70.124C115.026 71.732 112.413 72.603 108.929 72.603C100.152 72.603 92.5137 65.501 92.5137 55.317C92.5137 45.066 100.152 37.964 108.929 37.964C112.413 37.964 115.026 38.835 117.371 40.443V38.902H134.858V50.024H130.905ZM112.145 61.95C113.82 61.95 115.495 61.548 117.371 59.94V50.627C115.495 49.019 113.82 48.617 112.145 48.617C108.594 48.617 105.646 51.297 105.646 55.317C105.646 59.27 108.594 61.95 112.145 61.95ZM150.937 35.619C146.649 35.619 143.232 32.403 143.232 28.115C143.232 23.827 146.649 20.678 150.937 20.678C155.158 20.678 158.709 23.827 158.709 28.115C158.709 32.403 155.158 35.619 150.937 35.619ZM161.925 60.811V72H140.552V60.811H144.505V50.024H140.552V38.902H157.972V60.811H161.925ZM209.793 60.811V72H192.373V54.848C192.373 51.029 190.296 49.689 188.018 49.689C186.544 49.689 185.204 50.292 183.864 51.632V60.811H187.817V72H166.444V60.811H170.397V50.024H166.444V38.902H183.864V41.113C186.477 38.835 189.09 37.897 192.373 37.897C200.212 37.897 205.84 42.922 205.84 51.967V60.811H209.793ZM239.977 59.94L241.25 71.129C236.359 72.67 233.009 73.005 229.458 73.005C221.418 73.005 215.991 66.707 215.991 57.126V50.024H210.095V38.902H215.991V28.919H229.525V38.902H239.575V50.024H229.525V56.456C229.525 59.069 230.798 60.61 233.679 60.61C234.885 60.61 236.493 60.342 239.977 59.94ZM275.609 38.366V52.101C269.177 52.168 265.492 52.637 262.343 53.24V60.811H268.976V72H244.923V60.811H248.876V50.024H244.923V38.902H262.343V42.386C265.358 40.175 269.11 38.366 275.609 38.366ZM317.157 50.024V60.811H321.11V72H303.623V70.124C301.278 71.732 298.665 72.603 295.181 72.603C286.404 72.603 278.766 65.501 278.766 55.317C278.766 45.066 286.404 37.964 295.181 37.964C298.665 37.964 301.278 38.835 303.623 40.443V38.902H321.11V50.024H317.157ZM298.397 61.95C300.072 61.95 301.747 61.548 303.623 59.94V50.627C301.747 49.019 300.072 48.617 298.397 48.617C294.846 48.617 291.898 51.297 291.898 55.317C291.898 59.27 294.846 61.95 298.397 61.95ZM337.189 35.619C332.901 35.619 329.484 32.403 329.484 28.115C329.484 23.827 332.901 20.678 337.189 20.678C341.41 20.678 344.961 23.827 344.961 28.115C344.961 32.403 341.41 35.619 337.189 35.619ZM348.177 60.811V72H326.804V60.811H330.757V50.024H326.804V38.902H344.224V60.811H348.177ZM373.807 60.811V72H352.434V60.811H356.387V35.552H352.434V24.43H369.854V60.811H373.807Z" fill="#92434D"/>
<path d="M249.836 78.848H248.708L248.072 82.46C247.676 84.68 246.008 86.18 243.956 86.18C241.748 86.18 240.596 84.692 240.992 82.46L241.628 78.848H240.488L240.68 77.84H244.088L243.896 78.848H242.768L242.144 82.46C241.856 84.02 242.624 85.112 243.968 85.112C245.48 85.112 246.656 84.02 246.932 82.46L247.568 78.848H246.428L246.62 77.84H250.016L249.836 78.848ZM257.048 84.992L256.856 86H253.736L253.928 84.992H254.924L255.296 82.892C255.488 81.824 254.996 81.212 254.06 81.212C253.472 81.212 252.788 81.548 252.212 82.136L251.708 84.992H252.728L252.536 86H249.416L249.596 84.992H250.604L251.24 81.404H250.22L250.412 80.396H252.524L252.428 80.948C253.016 80.492 253.7 80.216 254.444 80.216C255.884 80.216 256.7 81.236 256.412 82.832L256.028 84.992H257.048ZM261.453 81.26C260.349 81.26 259.413 82.112 259.281 83.204C259.161 84.272 259.821 85.136 260.937 85.136C261.741 85.136 262.413 84.692 262.677 84.02H263.805C263.433 85.268 262.353 86.144 260.877 86.144C259.089 86.144 257.961 84.86 258.177 83.204C258.381 81.536 259.773 80.264 261.453 80.264C262.233 80.264 262.821 80.54 263.181 80.984L263.289 80.396H264.321L263.973 82.388H262.905C262.797 81.704 262.257 81.26 261.453 81.26ZM268.554 80.252C270.15 80.252 271.278 81.392 271.278 82.916C271.278 84.728 269.718 86.18 267.918 86.18C266.334 86.18 265.182 85.04 265.182 83.48C265.182 81.656 266.766 80.252 268.554 80.252ZM267.978 85.172C269.154 85.172 270.162 84.164 270.162 82.964C270.162 82.016 269.514 81.26 268.494 81.26C267.33 81.26 266.298 82.232 266.298 83.432C266.298 84.392 266.946 85.172 267.978 85.172ZM279.16 81.404H278.416L275.38 86H274.288L272.848 81.404H272.092L272.284 80.396H275.116L274.936 81.404H274.012L274.972 84.704L277.108 81.404H276.268L276.46 80.396H279.352L279.16 81.404ZM282.935 80.252C284.591 80.252 285.563 81.476 285.371 83.144C285.347 83.3 285.335 83.468 285.287 83.624L285.263 83.612V83.624H280.727C280.763 84.524 281.291 85.208 282.407 85.208C283.115 85.208 283.679 84.908 283.919 84.512H285.107C284.651 85.52 283.559 86.18 282.311 86.18C280.559 86.18 279.479 84.896 279.683 83.204C279.887 81.548 281.219 80.252 282.935 80.252ZM282.875 81.14C281.855 81.14 281.111 81.872 280.847 82.76H284.375C284.375 81.8 283.847 81.14 282.875 81.14ZM291.576 80.312L291.372 81.428C290.316 81.452 289.476 81.716 288.888 81.956L288.348 84.992H289.884L289.704 86H286.056L286.236 84.992H287.244L287.88 81.404H286.86L287.052 80.396H289.164L289.044 81.068C289.692 80.648 290.556 80.312 291.576 80.312ZM294.264 77.684C294.684 77.684 295.044 78.008 295.044 78.452C295.044 78.872 294.684 79.196 294.264 79.196C293.832 79.196 293.484 78.872 293.484 78.452C293.484 78.008 293.832 77.684 294.264 77.684ZM293.712 84.992H294.72L294.54 86H291.42L291.6 84.992H292.608L293.244 81.404H292.224L292.404 80.396H294.516L293.712 84.992ZM303.256 84.992L303.064 86H299.944L300.136 84.992H301.132L301.504 82.892C301.696 81.824 301.204 81.212 300.268 81.212C299.68 81.212 298.996 81.548 298.42 82.136L297.916 84.992H298.936L298.744 86H295.624L295.804 84.992H296.812L297.448 81.404H296.428L296.62 80.396H298.732L298.636 80.948C299.224 80.492 299.908 80.216 300.652 80.216C302.092 80.216 302.908 81.236 302.62 82.832L302.236 84.992H303.256ZM307.876 80.252C308.92 80.252 309.82 80.492 310.792 80.888L309.784 86.216C309.496 87.836 308.188 88.868 306.52 88.868C304.984 88.868 303.916 87.968 303.976 86.66H305.092C305.104 87.38 305.668 87.872 306.58 87.872C307.636 87.872 308.5 87.236 308.68 86.216L308.812 85.496C308.26 85.976 307.624 86.18 306.952 86.18C305.416 86.18 304.384 85.1 304.384 83.648C304.384 81.74 306.064 80.252 307.876 80.252ZM307.12 85.172C307.888 85.172 308.584 84.764 309.076 84.128L309.592 81.476C308.932 81.26 308.356 81.176 307.864 81.176C306.556 81.176 305.512 82.28 305.512 83.504C305.512 84.44 306.148 85.172 307.12 85.172ZM324.766 84.992L324.586 86H321.07L321.25 84.992H322.63L322.186 83.408H318.346L317.338 84.992H318.562L318.382 86H315.022L315.202 84.992H316.066L320.014 78.848H318.694L318.862 77.84H321.742V77.864L323.794 84.992H324.766ZM321.91 82.424L320.998 79.22L318.97 82.424H321.91ZM327.902 84.992H328.91L328.73 86H325.61L325.79 84.992H326.798L327.938 78.488H326.93L327.11 77.48H329.222L327.902 84.992ZM333.867 80.252C334.911 80.252 335.811 80.492 336.783 80.888L335.775 86.216C335.487 87.836 334.179 88.868 332.511 88.868C330.975 88.868 329.907 87.968 329.967 86.66H331.083C331.095 87.38 331.659 87.872 332.571 87.872C333.627 87.872 334.491 87.236 334.671 86.216L334.803 85.496C334.251 85.976 333.615 86.18 332.943 86.18C331.407 86.18 330.375 85.1 330.375 83.648C330.375 81.74 332.055 80.252 333.867 80.252ZM333.111 85.172C333.879 85.172 334.575 84.764 335.067 84.128L335.583 81.476C334.923 81.26 334.347 81.176 333.855 81.176C332.547 81.176 331.503 82.28 331.503 83.504C331.503 84.44 332.139 85.172 333.111 85.172ZM341.197 80.252C342.793 80.252 343.921 81.392 343.921 82.916C343.921 84.728 342.361 86.18 340.561 86.18C338.977 86.18 337.825 85.04 337.825 83.48C337.825 81.656 339.409 80.252 341.197 80.252ZM340.621 85.172C341.797 85.172 342.805 84.164 342.805 82.964C342.805 82.016 342.157 81.26 341.137 81.26C339.973 81.26 338.941 82.232 338.941 83.432C338.941 84.392 339.589 85.172 340.621 85.172ZM350.117 80.312L349.913 81.428C348.857 81.452 348.017 81.716 347.429 81.956L346.889 84.992H348.425L348.245 86H344.597L344.777 84.992H345.785L346.421 81.404H345.401L345.593 80.396H347.705L347.585 81.068C348.233 80.648 349.097 80.312 350.117 80.312ZM357.051 84.992L356.871 86H354.759L354.867 85.46C354.315 85.94 353.691 86.18 353.031 86.18C351.495 86.18 350.463 85.1 350.463 83.648C350.463 81.74 352.143 80.252 353.955 80.252C354.999 80.252 355.791 80.492 356.883 80.888L356.055 84.992H357.051ZM353.199 85.172C353.991 85.172 354.723 84.728 355.143 84.044L355.659 81.476C354.975 81.26 354.435 81.176 353.943 81.176C352.635 81.176 351.591 82.28 351.591 83.504C351.591 84.44 352.227 85.172 353.199 85.172ZM365.523 84.992L365.331 86H362.211L362.403 84.992H363.399L363.771 82.892C363.963 81.824 363.471 81.212 362.535 81.212C361.947 81.212 361.263 81.548 360.687 82.136L360.183 84.992H361.203L361.011 86H357.891L358.071 84.992H359.079L359.715 81.404H358.695L358.887 80.396H360.999L360.903 80.948C361.491 80.492 362.175 80.216 362.919 80.216C364.359 80.216 365.175 81.236 364.887 82.832L364.503 84.992H365.523ZM372.184 84.992H373.192L373.024 86H370.912L371.008 85.472C370.456 85.94 369.832 86.18 369.172 86.18C367.636 86.18 366.616 85.1 366.616 83.648C366.616 81.74 368.296 80.252 370.096 80.252C370.756 80.252 371.32 80.348 371.872 80.516L372.232 78.488H371.224L371.392 77.48H373.504L372.184 84.992ZM369.34 85.172C370.108 85.172 370.792 84.764 371.236 84.14L371.716 81.464C371.092 81.26 370.564 81.176 370.084 81.176C368.776 81.176 367.732 82.28 367.732 83.504C367.732 84.44 368.368 85.172 369.34 85.172Z" fill="#AAAAAA"/>
</svg>
