<svg width="379" height="101" viewBox="0 0 379 101" fill="none" xmlns="http://www.w3.org/2000/svg">
<path d="M30.2 51.4H24.488L23.672 55H20.36L24.368 38.2H30.32L34.328 55H31.016L30.2 51.4ZM25.16 48.376H29.504L27.56 39.784H27.128L25.16 48.376ZM37.2153 52.12H41.3913V41.08H37.3593V38.2H44.4153V52.12H48.3033V55H37.2153V52.12ZM61.1986 53.272H60.7666C60.6386 53.544 60.4786 53.808 60.2866 54.064C60.1106 54.304 59.8706 54.52 59.5666 54.712C59.2786 54.904 58.9266 55.056 58.5106 55.168C58.1106 55.28 57.6226 55.336 57.0466 55.336C56.3106 55.336 55.6226 55.208 54.9826 54.952C54.3586 54.68 53.8066 54.288 53.3266 53.776C52.8626 53.248 52.4946 52.608 52.2226 51.856C51.9666 51.104 51.8386 50.24 51.8386 49.264V48.832C51.8386 47.872 51.9746 47.016 52.2466 46.264C52.5346 45.512 52.9186 44.88 53.3986 44.368C53.8946 43.84 54.4626 43.44 55.1026 43.168C55.7586 42.896 56.4466 42.76 57.1666 42.76C58.1266 42.76 58.8866 42.944 59.4466 43.312C60.0066 43.664 60.4466 44.168 60.7666 44.824H61.1986V43.096H64.2226V57.928C64.2226 58.472 64.0466 58.92 63.6946 59.272C63.3586 59.624 62.9186 59.8 62.3746 59.8H54.3586V56.92H60.5506C60.9826 56.92 61.1986 56.68 61.1986 56.2V53.272ZM58.0306 52.456C58.9746 52.456 59.7346 52.16 60.3106 51.568C60.9026 50.96 61.1986 50.168 61.1986 49.192V48.904C61.1986 47.928 60.9026 47.144 60.3106 46.552C59.7346 45.944 58.9746 45.64 58.0306 45.64C57.0866 45.64 56.3186 45.936 55.7266 46.528C55.1506 47.104 54.8626 47.896 54.8626 48.904V49.192C54.8626 50.2 55.1506 51 55.7266 51.592C56.3186 52.168 57.0866 52.456 58.0306 52.456ZM79.7819 49.192C79.7819 50.184 79.6139 51.064 79.2779 51.832C78.9419 52.584 78.4859 53.224 77.9099 53.752C77.3339 54.264 76.6699 54.656 75.9179 54.928C75.1819 55.2 74.4059 55.336 73.5899 55.336C72.7739 55.336 71.9899 55.2 71.2379 54.928C70.5019 54.656 69.8459 54.264 69.2699 53.752C68.6939 53.224 68.2379 52.584 67.9019 51.832C67.5659 51.064 67.3979 50.184 67.3979 49.192V48.904C67.3979 47.928 67.5659 47.064 67.9019 46.312C68.2379 45.544 68.6939 44.896 69.2699 44.368C69.8459 43.84 70.5019 43.44 71.2379 43.168C71.9899 42.896 72.7739 42.76 73.5899 42.76C74.4059 42.76 75.1819 42.896 75.9179 43.168C76.6699 43.44 77.3339 43.84 77.9099 44.368C78.4859 44.896 78.9419 45.544 79.2779 46.312C79.6139 47.064 79.7819 47.928 79.7819 48.904V49.192ZM73.5899 52.456C74.0219 52.456 74.4299 52.384 74.8139 52.24C75.1979 52.096 75.5339 51.888 75.8219 51.616C76.1099 51.344 76.3339 51.016 76.4939 50.632C76.6699 50.232 76.7579 49.784 76.7579 49.288V48.808C76.7579 48.312 76.6699 47.872 76.4939 47.488C76.3339 47.088 76.1099 46.752 75.8219 46.48C75.5339 46.208 75.1979 46 74.8139 45.856C74.4299 45.712 74.0219 45.64 73.5899 45.64C73.1579 45.64 72.7499 45.712 72.3659 45.856C71.9819 46 71.6459 46.208 71.3579 46.48C71.0699 46.752 70.8379 47.088 70.6619 47.488C70.5019 47.872 70.4219 48.312 70.4219 48.808V49.288C70.4219 49.784 70.5019 50.232 70.6619 50.632C70.8379 51.016 71.0699 51.344 71.3579 51.616C71.6459 51.888 71.9819 52.096 72.3659 52.24C72.7499 52.384 73.1579 52.456 73.5899 52.456ZM82.9573 43.096H87.9973V44.824H88.4293C88.6533 44.168 89.0293 43.664 89.5573 43.312C90.1013 42.944 90.7493 42.76 91.5013 42.76C92.6853 42.76 93.6373 43.136 94.3573 43.888C95.0773 44.624 95.4373 45.752 95.4373 47.272V47.8L92.3173 48.088V47.752C92.3173 47.096 92.1493 46.576 91.8133 46.192C91.4773 45.792 90.9733 45.592 90.3013 45.592C89.6293 45.592 89.1013 45.824 88.7173 46.288C88.3333 46.752 88.1413 47.416 88.1413 48.28V52.12H90.8773V55H82.6693V52.12H85.1173V45.976H82.9573V43.096ZM106.653 53.272C106.333 54.024 105.885 54.56 105.309 54.88C104.733 55.184 104.061 55.336 103.293 55.336C102.573 55.336 101.893 55.2 101.253 54.928C100.629 54.656 100.077 54.256 99.5966 53.728C99.1166 53.2 98.7326 52.56 98.4446 51.808C98.1726 51.056 98.0366 50.2 98.0366 49.24V48.856C98.0366 47.912 98.1726 47.064 98.4446 46.312C98.7166 45.56 99.0846 44.92 99.5486 44.392C100.013 43.864 100.549 43.464 101.157 43.192C101.781 42.904 102.445 42.76 103.149 42.76C103.997 42.76 104.677 42.904 105.189 43.192C105.717 43.48 106.133 43.928 106.437 44.536H106.869V43.096H109.893V51.4C109.893 51.88 110.109 52.12 110.541 52.12H110.997V55H108.933C108.389 55 107.941 54.84 107.589 54.52C107.253 54.2 107.085 53.784 107.085 53.272H106.653ZM103.965 52.456C104.845 52.456 105.549 52.168 106.077 51.592C106.605 51 106.869 50.2 106.869 49.192V48.904C106.869 47.896 106.605 47.104 106.077 46.528C105.549 45.936 104.845 45.64 103.965 45.64C103.085 45.64 102.381 45.936 101.853 46.528C101.325 47.104 101.061 47.896 101.061 48.904V49.192C101.061 50.2 101.325 51 101.853 51.592C102.381 52.168 103.085 52.456 103.965 52.456ZM117.388 55H114.364V43.096H117.388V44.872H117.82C118.092 44.2 118.532 43.68 119.14 43.312C119.748 42.944 120.46 42.76 121.276 42.76C121.852 42.76 122.388 42.856 122.884 43.048C123.396 43.224 123.844 43.504 124.228 43.888C124.612 44.272 124.908 44.76 125.116 45.352C125.34 45.944 125.452 46.648 125.452 47.464V55H122.428V48.232C122.428 47.384 122.22 46.72 121.804 46.24C121.404 45.744 120.82 45.496 120.052 45.496C119.156 45.496 118.484 45.8 118.036 46.408C117.604 47 117.388 47.8 117.388 48.808V55ZM138.323 53.272H137.891C137.763 53.544 137.603 53.808 137.411 54.064C137.235 54.304 136.995 54.52 136.691 54.712C136.403 54.904 136.051 55.056 135.635 55.168C135.235 55.28 134.747 55.336 134.171 55.336C133.435 55.336 132.747 55.208 132.107 54.952C131.483 54.68 130.931 54.288 130.451 53.776C129.987 53.248 129.619 52.608 129.347 51.856C129.091 51.104 128.963 50.24 128.963 49.264V48.832C128.963 47.872 129.099 47.016 129.371 46.264C129.659 45.512 130.043 44.88 130.523 44.368C131.019 43.84 131.587 43.44 132.227 43.168C132.883 42.896 133.571 42.76 134.291 42.76C135.251 42.76 136.011 42.944 136.571 43.312C137.131 43.664 137.571 44.168 137.891 44.824H138.323V38.2H141.347V55H138.323V53.272ZM135.155 52.456C136.099 52.456 136.859 52.16 137.435 51.568C138.027 50.96 138.323 50.168 138.323 49.192V48.904C138.323 47.928 138.027 47.144 137.435 46.552C136.859 45.944 136.099 45.64 135.155 45.64C134.211 45.64 133.443 45.936 132.851 46.528C132.275 47.104 131.987 47.896 131.987 48.904V49.192C131.987 50.2 132.275 51 132.851 51.592C133.443 52.168 134.211 52.456 135.155 52.456ZM236.918 38.2H243.014C245.094 38.2 246.638 38.688 247.646 39.664C248.654 40.624 249.158 42.12 249.158 44.152V49.048C249.158 51.08 248.654 52.584 247.646 53.56C246.638 54.52 245.094 55 243.014 55H236.918V51.952H238.502V41.224H236.918V38.2ZM243.014 51.976C244.118 51.976 244.886 51.72 245.318 51.208C245.766 50.68 245.99 49.864 245.99 48.76V44.152C245.99 43.192 245.766 42.464 245.318 41.968C244.886 41.472 244.118 41.224 243.014 41.224H241.67V51.976H243.014ZM255.766 50.032C255.782 50.384 255.862 50.712 256.006 51.016C256.166 51.304 256.374 51.56 256.63 51.784C256.902 51.992 257.206 52.16 257.542 52.288C257.894 52.4 258.262 52.456 258.646 52.456C259.398 52.456 259.974 52.328 260.374 52.072C260.774 51.8 261.062 51.48 261.238 51.112L263.83 52.552C263.686 52.856 263.486 53.176 263.23 53.512C262.974 53.832 262.638 54.128 262.222 54.4C261.822 54.672 261.326 54.896 260.734 55.072C260.158 55.248 259.478 55.336 258.694 55.336C257.798 55.336 256.982 55.192 256.246 54.904C255.51 54.616 254.87 54.2 254.326 53.656C253.798 53.112 253.382 52.448 253.078 51.664C252.79 50.88 252.646 49.992 252.646 49V48.856C252.646 47.944 252.798 47.112 253.102 46.36C253.422 45.608 253.854 44.968 254.398 44.44C254.942 43.912 255.574 43.504 256.294 43.216C257.03 42.912 257.814 42.76 258.646 42.76C259.67 42.76 260.55 42.944 261.286 43.312C262.022 43.664 262.63 44.12 263.11 44.68C263.59 45.224 263.942 45.832 264.166 46.504C264.39 47.16 264.502 47.8 264.502 48.424V50.032H255.766ZM258.622 45.496C257.854 45.496 257.23 45.696 256.75 46.096C256.27 46.48 255.958 46.928 255.814 47.44H261.43C261.334 46.88 261.03 46.416 260.518 46.048C260.022 45.68 259.39 45.496 258.622 45.496ZM268.181 43.096H271.709V38.2H274.733V43.096H279.029V45.976H274.733V51.4C274.733 51.88 274.949 52.12 275.381 52.12H278.597V55H273.557C273.013 55 272.565 54.824 272.213 54.472C271.877 54.12 271.709 53.672 271.709 53.128V45.976H268.181V43.096ZM286.596 50.032C286.612 50.384 286.692 50.712 286.836 51.016C286.996 51.304 287.204 51.56 287.46 51.784C287.732 51.992 288.036 52.16 288.372 52.288C288.724 52.4 289.092 52.456 289.476 52.456C290.228 52.456 290.804 52.328 291.204 52.072C291.604 51.8 291.892 51.48 292.068 51.112L294.66 52.552C294.516 52.856 294.316 53.176 294.06 53.512C293.804 53.832 293.468 54.128 293.052 54.4C292.652 54.672 292.156 54.896 291.564 55.072C290.988 55.248 290.308 55.336 289.524 55.336C288.628 55.336 287.812 55.192 287.076 54.904C286.34 54.616 285.7 54.2 285.156 53.656C284.628 53.112 284.212 52.448 283.908 51.664C283.62 50.88 283.476 49.992 283.476 49V48.856C283.476 47.944 283.628 47.112 283.932 46.36C284.252 45.608 284.684 44.968 285.228 44.44C285.772 43.912 286.404 43.504 287.124 43.216C287.86 42.912 288.644 42.76 289.476 42.76C290.5 42.76 291.38 42.944 292.116 43.312C292.852 43.664 293.46 44.12 293.94 44.68C294.42 45.224 294.772 45.832 294.996 46.504C295.22 47.16 295.332 47.8 295.332 48.424V50.032H286.596ZM289.452 45.496C288.684 45.496 288.06 45.696 287.58 46.096C287.1 46.48 286.788 46.928 286.644 47.44H292.26C292.164 46.88 291.86 46.416 291.348 46.048C290.852 45.68 290.22 45.496 289.452 45.496ZM310.964 50.632C310.692 52.04 310.044 53.176 309.02 54.04C308.012 54.904 306.66 55.336 304.964 55.336C304.084 55.336 303.26 55.2 302.492 54.928C301.74 54.656 301.084 54.264 300.524 53.752C299.964 53.24 299.524 52.608 299.204 51.856C298.884 51.104 298.724 50.248 298.724 49.288V49C298.724 48.04 298.884 47.176 299.204 46.408C299.524 45.64 299.964 44.984 300.524 44.44C301.1 43.896 301.764 43.48 302.516 43.192C303.284 42.904 304.1 42.76 304.964 42.76C306.628 42.76 307.972 43.192 308.996 44.056C310.036 44.92 310.692 46.056 310.964 47.464L307.988 48.232C307.892 47.528 307.588 46.92 307.076 46.408C306.564 45.896 305.844 45.64 304.916 45.64C304.484 45.64 304.076 45.72 303.692 45.88C303.308 46.04 302.972 46.272 302.684 46.576C302.396 46.864 302.164 47.224 301.988 47.656C301.828 48.072 301.748 48.544 301.748 49.072V49.216C301.748 49.744 301.828 50.216 301.988 50.632C302.164 51.032 302.396 51.368 302.684 51.64C302.972 51.912 303.308 52.12 303.692 52.264C304.076 52.392 304.484 52.456 304.916 52.456C305.844 52.456 306.548 52.224 307.028 51.76C307.524 51.296 307.844 50.672 307.988 49.888L310.964 50.632ZM314.427 43.096H317.955V38.2H320.979V43.096H325.275V45.976H320.979V51.4C320.979 51.88 321.195 52.12 321.627 52.12H324.843V55H319.803C319.259 55 318.811 54.824 318.459 54.472C318.123 54.12 317.955 53.672 317.955 53.128V45.976H314.427V43.096ZM341.842 49.192C341.842 50.184 341.674 51.064 341.338 51.832C341.002 52.584 340.546 53.224 339.97 53.752C339.394 54.264 338.73 54.656 337.978 54.928C337.242 55.2 336.466 55.336 335.65 55.336C334.834 55.336 334.05 55.2 333.298 54.928C332.562 54.656 331.906 54.264 331.33 53.752C330.754 53.224 330.298 52.584 329.962 51.832C329.626 51.064 329.458 50.184 329.458 49.192V48.904C329.458 47.928 329.626 47.064 329.962 46.312C330.298 45.544 330.754 44.896 331.33 44.368C331.906 43.84 332.562 43.44 333.298 43.168C334.05 42.896 334.834 42.76 335.65 42.76C336.466 42.76 337.242 42.896 337.978 43.168C338.73 43.44 339.394 43.84 339.97 44.368C340.546 44.896 341.002 45.544 341.338 46.312C341.674 47.064 341.842 47.928 341.842 48.904V49.192ZM335.65 52.456C336.082 52.456 336.49 52.384 336.874 52.24C337.258 52.096 337.594 51.888 337.882 51.616C338.17 51.344 338.394 51.016 338.554 50.632C338.73 50.232 338.818 49.784 338.818 49.288V48.808C338.818 48.312 338.73 47.872 338.554 47.488C338.394 47.088 338.17 46.752 337.882 46.48C337.594 46.208 337.258 46 336.874 45.856C336.49 45.712 336.082 45.64 335.65 45.64C335.218 45.64 334.81 45.712 334.426 45.856C334.042 46 333.706 46.208 333.418 46.48C333.13 46.752 332.898 47.088 332.722 47.488C332.562 47.872 332.482 48.312 332.482 48.808V49.288C332.482 49.784 332.562 50.232 332.722 50.632C332.898 51.016 333.13 51.344 333.418 51.616C333.706 51.888 334.042 52.096 334.426 52.24C334.81 52.384 335.218 52.456 335.65 52.456ZM345.018 43.096H350.058V44.824H350.49C350.714 44.168 351.09 43.664 351.618 43.312C352.162 42.944 352.81 42.76 353.562 42.76C354.746 42.76 355.698 43.136 356.418 43.888C357.138 44.624 357.498 45.752 357.498 47.272V47.8L354.378 48.088V47.752C354.378 47.096 354.21 46.576 353.874 46.192C353.538 45.792 353.034 45.592 352.362 45.592C351.69 45.592 351.162 45.824 350.778 46.288C350.394 46.752 350.202 47.416 350.202 48.28V52.12H352.938V55H344.73V52.12H347.178V45.976H345.018V43.096Z" fill="black"/>
<path d="M168.962 43.336C168.962 42.664 168.698 42.08 168.17 41.584C167.658 41.088 166.93 40.84 165.986 40.84C165.186 40.84 164.554 41.008 164.09 41.344C163.626 41.664 163.394 42.104 163.394 42.664C163.394 42.952 163.45 43.216 163.562 43.456C163.674 43.68 163.866 43.888 164.138 44.08C164.426 44.256 164.794 44.416 165.242 44.56C165.706 44.704 166.29 44.84 166.994 44.968C168.754 45.288 170.098 45.824 171.026 46.576C171.954 47.328 172.418 48.44 172.418 49.912V50.2C172.418 50.984 172.274 51.696 171.986 52.336C171.714 52.96 171.314 53.496 170.786 53.944C170.258 54.392 169.618 54.736 168.866 54.976C168.114 55.216 167.266 55.336 166.322 55.336C165.218 55.336 164.242 55.184 163.394 54.88C162.562 54.56 161.866 54.128 161.306 53.584C160.746 53.024 160.322 52.376 160.034 51.64C159.746 50.888 159.602 50.072 159.602 49.192V48.472H162.77V49.048C162.77 50.056 163.058 50.864 163.634 51.472C164.226 52.064 165.138 52.36 166.37 52.36C167.33 52.36 168.042 52.152 168.506 51.736C168.97 51.32 169.202 50.824 169.202 50.248C169.202 49.976 169.154 49.72 169.058 49.48C168.962 49.224 168.794 49 168.554 48.808C168.314 48.6 167.986 48.416 167.57 48.256C167.154 48.096 166.626 47.96 165.986 47.848C165.138 47.704 164.362 47.52 163.658 47.296C162.954 47.056 162.338 46.744 161.81 46.36C161.298 45.976 160.898 45.496 160.61 44.92C160.322 44.344 160.178 43.64 160.178 42.808V42.664C160.178 41.976 160.314 41.344 160.586 40.768C160.874 40.176 161.266 39.664 161.762 39.232C162.274 38.8 162.882 38.464 163.586 38.224C164.306 37.984 165.106 37.864 165.986 37.864C166.978 37.864 167.858 38.008 168.626 38.296C169.394 38.568 170.034 38.944 170.546 39.424C171.074 39.904 171.466 40.456 171.722 41.08C171.994 41.704 172.13 42.36 172.13 43.048V43.912H168.962V43.336ZM187.641 50.632C187.369 52.04 186.721 53.176 185.697 54.04C184.689 54.904 183.337 55.336 181.641 55.336C180.761 55.336 179.937 55.2 179.169 54.928C178.417 54.656 177.761 54.264 177.201 53.752C176.641 53.24 176.201 52.608 175.881 51.856C175.561 51.104 175.401 50.248 175.401 49.288V49C175.401 48.04 175.561 47.176 175.881 46.408C176.201 45.64 176.641 44.984 177.201 44.44C177.777 43.896 178.441 43.48 179.193 43.192C179.961 42.904 180.777 42.76 181.641 42.76C183.305 42.76 184.649 43.192 185.673 44.056C186.713 44.92 187.369 46.056 187.641 47.464L184.665 48.232C184.569 47.528 184.265 46.92 183.753 46.408C183.241 45.896 182.521 45.64 181.593 45.64C181.161 45.64 180.753 45.72 180.369 45.88C179.985 46.04 179.649 46.272 179.361 46.576C179.073 46.864 178.841 47.224 178.665 47.656C178.505 48.072 178.425 48.544 178.425 49.072V49.216C178.425 49.744 178.505 50.216 178.665 50.632C178.841 51.032 179.073 51.368 179.361 51.64C179.649 51.912 179.985 52.12 180.369 52.264C180.753 52.392 181.161 52.456 181.593 52.456C182.521 52.456 183.225 52.224 183.705 51.76C184.201 51.296 184.521 50.672 184.665 49.888L187.641 50.632ZM199.144 53.272C198.824 54.024 198.376 54.56 197.8 54.88C197.224 55.184 196.552 55.336 195.784 55.336C195.064 55.336 194.384 55.2 193.744 54.928C193.12 54.656 192.568 54.256 192.088 53.728C191.608 53.2 191.224 52.56 190.936 51.808C190.664 51.056 190.528 50.2 190.528 49.24V48.856C190.528 47.912 190.664 47.064 190.936 46.312C191.208 45.56 191.576 44.92 192.04 44.392C192.504 43.864 193.04 43.464 193.648 43.192C194.272 42.904 194.936 42.76 195.64 42.76C196.488 42.76 197.168 42.904 197.68 43.192C198.208 43.48 198.624 43.928 198.928 44.536H199.36V43.096H202.384V51.4C202.384 51.88 202.6 52.12 203.032 52.12H203.488V55H201.424C200.88 55 200.432 54.84 200.08 54.52C199.744 54.2 199.576 53.784 199.576 53.272H199.144ZM196.456 52.456C197.336 52.456 198.04 52.168 198.568 51.592C199.096 51 199.36 50.2 199.36 49.192V48.904C199.36 47.896 199.096 47.104 198.568 46.528C198.04 45.936 197.336 45.64 196.456 45.64C195.576 45.64 194.872 45.936 194.344 46.528C193.816 47.104 193.552 47.896 193.552 48.904V49.192C193.552 50.2 193.816 51 194.344 51.592C194.872 52.168 195.576 52.456 196.456 52.456ZM218.808 55H215.784V46.648C215.784 46.312 215.696 46.064 215.52 45.904C215.36 45.728 215.144 45.64 214.872 45.64C214.552 45.64 214.296 45.736 214.104 45.928C213.928 46.12 213.84 46.408 213.84 46.792V55H210.816V46.648C210.816 46.312 210.72 46.064 210.528 45.904C210.352 45.728 210.136 45.64 209.88 45.64C209.592 45.64 209.352 45.736 209.16 45.928C208.968 46.12 208.872 46.408 208.872 46.792V55H205.848V43.096H208.872V44.248H209.304C209.4 43.816 209.616 43.464 209.952 43.192C210.304 42.904 210.76 42.76 211.32 42.76C211.848 42.76 212.296 42.904 212.664 43.192C213.032 43.464 213.28 43.816 213.408 44.248H213.84C213.968 43.816 214.232 43.464 214.632 43.192C215.048 42.904 215.56 42.76 216.168 42.76C216.968 42.76 217.608 43.032 218.088 43.576C218.568 44.104 218.808 44.84 218.808 45.784V55Z" fill="#92434D"/>
<path d="M248.424 71.6H247.416V66.032H248.424V66.608H248.568C248.675 66.3893 248.829 66.2213 249.032 66.104C249.235 65.9813 249.493 65.92 249.808 65.92C250.043 65.92 250.264 65.9653 250.472 66.056C250.685 66.1467 250.869 66.28 251.024 66.456C251.184 66.6267 251.309 66.8373 251.4 67.088C251.496 67.3387 251.544 67.624 251.544 67.944V68.088C251.544 68.4133 251.499 68.7013 251.408 68.952C251.317 69.2027 251.195 69.416 251.04 69.592C250.885 69.7627 250.701 69.8933 250.488 69.984C250.28 70.0693 250.053 70.112 249.808 70.112C249.627 70.112 249.469 70.0933 249.336 70.056C249.203 70.0187 249.085 69.968 248.984 69.904C248.888 69.84 248.805 69.768 248.736 69.688C248.672 69.6027 248.616 69.5147 248.568 69.424H248.424V71.6ZM249.48 69.152C249.795 69.152 250.048 69.056 250.24 68.864C250.437 68.6667 250.536 68.4 250.536 68.064V67.968C250.536 67.632 250.437 67.368 250.24 67.176C250.048 66.9787 249.795 66.88 249.48 66.88C249.165 66.88 248.909 66.9813 248.712 67.184C248.52 67.3813 248.424 67.6427 248.424 67.968V68.064C248.424 68.3893 248.52 68.6533 248.712 68.856C248.909 69.0533 249.165 69.152 249.48 69.152ZM256.65 68.064C256.65 68.3947 256.594 68.688 256.482 68.944C256.37 69.1947 256.218 69.408 256.026 69.584C255.834 69.7547 255.613 69.8853 255.362 69.976C255.117 70.0667 254.858 70.112 254.586 70.112C254.314 70.112 254.053 70.0667 253.802 69.976C253.557 69.8853 253.338 69.7547 253.146 69.584C252.954 69.408 252.802 69.1947 252.69 68.944C252.578 68.688 252.522 68.3947 252.522 68.064V67.968C252.522 67.6427 252.578 67.3547 252.69 67.104C252.802 66.848 252.954 66.632 253.146 66.456C253.338 66.28 253.557 66.1467 253.802 66.056C254.053 65.9653 254.314 65.92 254.586 65.92C254.858 65.92 255.117 65.9653 255.362 66.056C255.613 66.1467 255.834 66.28 256.026 66.456C256.218 66.632 256.37 66.848 256.482 67.104C256.594 67.3547 256.65 67.6427 256.65 67.968V68.064ZM254.586 69.152C254.73 69.152 254.866 69.128 254.994 69.08C255.122 69.032 255.234 68.9627 255.33 68.872C255.426 68.7813 255.501 68.672 255.554 68.544C255.613 68.4107 255.642 68.2613 255.642 68.096V67.936C255.642 67.7707 255.613 67.624 255.554 67.496C255.501 67.3627 255.426 67.2507 255.33 67.16C255.234 67.0693 255.122 67 254.994 66.952C254.866 66.904 254.73 66.88 254.586 66.88C254.442 66.88 254.306 66.904 254.178 66.952C254.05 67 253.938 67.0693 253.842 67.16C253.746 67.2507 253.669 67.3627 253.61 67.496C253.557 67.624 253.53 67.7707 253.53 67.936V68.096C253.53 68.2613 253.557 68.4107 253.61 68.544C253.669 68.672 253.746 68.7813 253.842 68.872C253.938 68.9627 254.05 69.032 254.178 69.08C254.306 69.128 254.442 69.152 254.586 69.152ZM261.789 70H260.045L259.821 66.992V66.512H259.629V66.992L259.405 70H257.661L257.397 66.032H258.325L258.501 69.04V69.52H258.693V69.04L258.893 66.032H260.557L260.757 69.04V69.52H260.949V69.04L261.125 66.032H262.053L261.789 70ZM263.927 68.344C263.933 68.4613 263.959 68.5707 264.007 68.672C264.061 68.768 264.13 68.8533 264.215 68.928C264.306 68.9973 264.407 69.0533 264.519 69.096C264.637 69.1333 264.759 69.152 264.887 69.152C265.138 69.152 265.33 69.1093 265.463 69.024C265.597 68.9333 265.693 68.8267 265.751 68.704L266.615 69.184C266.567 69.2853 266.501 69.392 266.415 69.504C266.33 69.6107 266.218 69.7093 266.079 69.8C265.946 69.8907 265.781 69.9653 265.583 70.024C265.391 70.0827 265.165 70.112 264.903 70.112C264.605 70.112 264.333 70.064 264.087 69.968C263.842 69.872 263.629 69.7333 263.447 69.552C263.271 69.3707 263.133 69.1493 263.031 68.888C262.935 68.6267 262.887 68.3307 262.887 68V67.952C262.887 67.648 262.938 67.3707 263.039 67.12C263.146 66.8693 263.29 66.656 263.471 66.48C263.653 66.304 263.863 66.168 264.103 66.072C264.349 65.9707 264.61 65.92 264.887 65.92C265.229 65.92 265.522 65.9813 265.767 66.104C266.013 66.2213 266.215 66.3733 266.375 66.56C266.535 66.7413 266.653 66.944 266.727 67.168C266.802 67.3867 266.839 67.6 266.839 67.808V68.344H263.927ZM264.879 66.832C264.623 66.832 264.415 66.8987 264.255 67.032C264.095 67.16 263.991 67.3093 263.943 67.48H265.815C265.783 67.2933 265.682 67.1387 265.511 67.016C265.346 66.8933 265.135 66.832 264.879 66.832ZM267.986 66.032H269.666V66.608H269.81C269.884 66.3893 270.01 66.2213 270.186 66.104C270.367 65.9813 270.583 65.92 270.834 65.92C271.228 65.92 271.546 66.0453 271.786 66.296C272.026 66.5413 272.146 66.9173 272.146 67.424V67.6L271.106 67.696V67.584C271.106 67.3653 271.05 67.192 270.938 67.064C270.826 66.9307 270.658 66.864 270.434 66.864C270.21 66.864 270.034 66.9413 269.906 67.096C269.778 67.2507 269.714 67.472 269.714 67.76V69.04H270.626V70H267.89V69.04H268.706V66.992H267.986V66.032ZM274.204 68.344C274.21 68.4613 274.236 68.5707 274.284 68.672C274.338 68.768 274.407 68.8533 274.492 68.928C274.583 68.9973 274.684 69.0533 274.796 69.096C274.914 69.1333 275.036 69.152 275.164 69.152C275.415 69.152 275.607 69.1093 275.74 69.024C275.874 68.9333 275.97 68.8267 276.028 68.704L276.892 69.184C276.844 69.2853 276.778 69.392 276.692 69.504C276.607 69.6107 276.495 69.7093 276.356 69.8C276.223 69.8907 276.058 69.9653 275.86 70.024C275.668 70.0827 275.442 70.112 275.18 70.112C274.882 70.112 274.61 70.064 274.364 69.968C274.119 69.872 273.906 69.7333 273.724 69.552C273.548 69.3707 273.41 69.1493 273.308 68.888C273.212 68.6267 273.164 68.3307 273.164 68V67.952C273.164 67.648 273.215 67.3707 273.316 67.12C273.423 66.8693 273.567 66.656 273.748 66.48C273.93 66.304 274.14 66.168 274.38 66.072C274.626 65.9707 274.887 65.92 275.164 65.92C275.506 65.92 275.799 65.9813 276.044 66.104C276.29 66.2213 276.492 66.3733 276.652 66.56C276.812 66.7413 276.93 66.944 277.004 67.168C277.079 67.3867 277.116 67.6 277.116 67.808V68.344H274.204ZM275.156 66.832C274.9 66.832 274.692 66.8987 274.532 67.032C274.372 67.16 274.268 67.3093 274.22 67.48H276.092C276.06 67.2933 275.959 67.1387 275.788 67.016C275.623 66.8933 275.412 66.832 275.156 66.832ZM281.303 69.424H281.159C281.116 69.5147 281.063 69.6027 280.999 69.688C280.94 69.768 280.86 69.84 280.759 69.904C280.663 69.968 280.545 70.0187 280.407 70.056C280.273 70.0933 280.111 70.112 279.919 70.112C279.673 70.112 279.444 70.0693 279.231 69.984C279.023 69.8933 278.839 69.7627 278.679 69.592C278.524 69.416 278.401 69.2027 278.311 68.952C278.225 68.7013 278.183 68.4133 278.183 68.088V67.944C278.183 67.624 278.228 67.3387 278.319 67.088C278.415 66.8373 278.543 66.6267 278.703 66.456C278.868 66.28 279.057 66.1467 279.271 66.056C279.489 65.9653 279.719 65.92 279.959 65.92C280.279 65.92 280.532 65.9813 280.719 66.104C280.905 66.2213 281.052 66.3893 281.159 66.608H281.303V64.4H282.311V70H281.303V69.424ZM280.247 69.152C280.561 69.152 280.815 69.0533 281.007 68.856C281.204 68.6533 281.303 68.3893 281.303 68.064V67.968C281.303 67.6427 281.204 67.3813 281.007 67.184C280.815 66.9813 280.561 66.88 280.247 66.88C279.932 66.88 279.676 66.9787 279.479 67.176C279.287 67.368 279.191 67.632 279.191 67.968V68.064C279.191 68.4 279.287 68.6667 279.479 68.864C279.676 69.056 279.932 69.152 280.247 69.152ZM289.571 70H288.563V64.4H289.571V66.608H289.715C289.822 66.3893 289.977 66.2213 290.179 66.104C290.382 65.9813 290.641 65.92 290.955 65.92C291.19 65.92 291.411 65.9653 291.619 66.056C291.833 66.1467 292.017 66.28 292.171 66.456C292.331 66.6267 292.457 66.8373 292.547 67.088C292.643 67.3387 292.691 67.624 292.691 67.944V68.088C292.691 68.4133 292.646 68.7013 292.555 68.952C292.465 69.2027 292.342 69.416 292.187 69.592C292.033 69.7627 291.849 69.8933 291.635 69.984C291.427 70.0693 291.201 70.112 290.955 70.112C290.774 70.112 290.617 70.0933 290.483 70.056C290.35 70.0187 290.233 69.968 290.131 69.904C290.035 69.84 289.953 69.768 289.883 69.688C289.819 69.6027 289.763 69.5147 289.715 69.424H289.571V70ZM290.627 69.152C290.942 69.152 291.195 69.056 291.387 68.864C291.585 68.6667 291.683 68.4 291.683 68.064V67.968C291.683 67.632 291.585 67.368 291.387 67.176C291.195 66.9787 290.942 66.88 290.627 66.88C290.313 66.88 290.057 66.9813 289.859 67.184C289.667 67.3813 289.571 67.6427 289.571 67.968V68.064C289.571 68.3893 289.667 68.6533 289.859 68.856C290.057 69.0533 290.313 69.152 290.627 69.152ZM296.558 66.032H297.566V70.976C297.566 71.1573 297.507 71.3067 297.39 71.424C297.278 71.5413 297.131 71.6 296.95 71.6H294.59V70.64H296.342C296.486 70.64 296.558 70.56 296.558 70.4V69.424H296.414C296.238 69.8827 295.859 70.112 295.278 70.112C295.081 70.112 294.897 70.08 294.726 70.016C294.555 69.952 294.406 69.8533 294.278 69.72C294.15 69.5867 294.049 69.4213 293.974 69.224C293.905 69.0213 293.87 68.784 293.87 68.512V66.032H294.878V68.304C294.878 68.5867 294.945 68.808 295.078 68.968C295.211 69.1227 295.411 69.2 295.678 69.2C295.982 69.2 296.203 69.104 296.342 68.912C296.486 68.7147 296.558 68.448 296.558 68.112V66.032Z" fill="#B1B1B1"/>
<path d="M305.835 68.3745H307.659C307.597 69.701 306.55 70.6344 304.943 70.6344C303.233 70.6344 302 69.6027 302 68.0798C302 66.5667 303.161 65.535 304.653 65.535C305.151 65.535 305.576 65.6529 305.918 65.8887V65.6725H307.649V67.785H305.845C305.762 67.3723 305.379 67.0972 304.902 67.0972C304.363 67.0972 303.907 67.5099 303.907 68.0798C303.907 68.6595 304.353 69.0623 304.912 69.0623C305.379 69.0623 305.752 68.797 305.835 68.3745Z" fill="#92434D" fill-opacity="0.5"/>
<path d="M314.983 68.8855V70.5263H312.288V68.0503C312.288 67.4804 311.967 67.2937 311.614 67.2937C311.386 67.2937 311.179 67.3822 310.972 67.5787V68.8855H311.583V70.5263H308.277V68.8855H308.889V65.1813H308.277V63.5502H310.972V65.9869C311.376 65.6627 311.78 65.5252 312.288 65.5252C313.501 65.5252 314.371 66.2621 314.371 67.5885V68.8855H314.983Z" fill="#92434D" fill-opacity="0.5"/>
<path d="M321.425 67.3036V68.8855H322.036V70.5263H319.331V70.2512C318.969 70.487 318.564 70.6148 318.025 70.6148C316.668 70.6148 315.486 69.5733 315.486 68.0798C315.486 66.5765 316.668 65.535 318.025 65.535C318.564 65.535 318.969 65.6627 319.331 65.8985V65.6725H322.036V67.3036H321.425ZM318.523 69.0525C318.782 69.0525 319.041 68.9935 319.331 68.7577V67.392C319.041 67.1562 318.782 67.0972 318.523 67.0972C317.974 67.0972 317.518 67.4902 317.518 68.0798C317.518 68.6595 317.974 69.0525 318.523 69.0525Z" fill="#92434D" fill-opacity="0.5"/>
<path d="M324.524 65.1911C323.861 65.1911 323.332 64.7195 323.332 64.0906C323.332 63.4618 323.861 63 324.524 63C325.177 63 325.726 63.4618 325.726 64.0906C325.726 64.7195 325.177 65.1911 324.524 65.1911ZM326.224 68.8855V70.5263H322.917V68.8855H323.529V67.3036H322.917V65.6725H325.612V68.8855H326.224Z" fill="#92434D" fill-opacity="0.5"/>
<path d="M333.628 68.8855V70.5263H330.934V68.011C330.934 67.4509 330.612 67.2544 330.26 67.2544C330.032 67.2544 329.825 67.3429 329.617 67.5394V68.8855H330.229V70.5263H326.923V68.8855H327.534V67.3036H326.923V65.6725H329.617V65.9968C330.022 65.6627 330.426 65.5252 330.934 65.5252C332.146 65.5252 333.017 66.2621 333.017 67.5885V68.8855H333.628Z" fill="#92434D" fill-opacity="0.5"/>
<path d="M338.298 68.7577L338.494 70.3986C337.738 70.6246 337.22 70.6737 336.67 70.6737C335.427 70.6737 334.587 69.7501 334.587 68.3451V67.3036H333.675V65.6725H334.587V64.2085H336.681V65.6725H338.235V67.3036H336.681V68.2468C336.681 68.63 336.878 68.856 337.323 68.856C337.51 68.856 337.759 68.8167 338.298 68.7577Z" fill="#92434D" fill-opacity="0.5"/>
<path d="M343.81 65.5939V67.6082C342.815 67.618 342.245 67.6868 341.757 67.7752V68.8855H342.783V70.5263H339.063V68.8855H339.674V67.3036H339.063V65.6725H341.757V66.1835C342.224 65.8592 342.804 65.5939 343.81 65.5939Z" fill="#92434D" fill-opacity="0.5"/>
<path d="M350.237 67.3036V68.8855H350.848V70.5263H348.143V70.2512C347.78 70.487 347.376 70.6148 346.837 70.6148C345.479 70.6148 344.298 69.5733 344.298 68.0798C344.298 66.5765 345.479 65.535 346.837 65.535C347.376 65.535 347.78 65.6627 348.143 65.8985V65.6725H350.848V67.3036H350.237ZM347.335 69.0525C347.594 69.0525 347.853 68.9935 348.143 68.7577V67.392C347.853 67.1562 347.594 67.0972 347.335 67.0972C346.785 67.0972 346.329 67.4902 346.329 68.0798C346.329 68.6595 346.785 69.0525 347.335 69.0525Z" fill="#92434D" fill-opacity="0.5"/>
<path d="M353.335 65.1911C352.672 65.1911 352.144 64.7195 352.144 64.0906C352.144 63.4618 352.672 63 353.335 63C353.988 63 354.538 63.4618 354.538 64.0906C354.538 64.7195 353.988 65.1911 353.335 65.1911ZM355.035 68.8855V70.5263H351.729V68.8855H352.341V67.3036H351.729V65.6725H354.424V68.8855H355.035Z" fill="#92434D" fill-opacity="0.5"/>
<path d="M359 68.8855V70.5263H355.694V68.8855H356.305V65.1813H355.694V63.5502H358.389V68.8855H359Z" fill="#92434D" fill-opacity="0.5"/>
<path d="M339.823 71.5306H339.648L339.55 72.0603C339.488 72.3858 339.23 72.6058 338.913 72.6058C338.571 72.6058 338.393 72.3876 338.454 72.0603L338.553 71.5306H338.377L338.406 71.3828H338.933L338.904 71.5306H338.729L338.633 72.0603C338.588 72.289 338.707 72.4492 338.915 72.4492C339.149 72.4492 339.331 72.289 339.373 72.0603L339.472 71.5306H339.295L339.325 71.3828H339.85L339.823 71.5306Z" fill="#AAAAAA"/>
<path d="M340.938 72.4316L340.909 72.5794H340.426L340.456 72.4316H340.61L340.667 72.1236C340.697 71.967 340.621 71.8773 340.476 71.8773C340.385 71.8773 340.279 71.9265 340.19 72.0128L340.112 72.4316H340.27L340.24 72.5794H339.758L339.786 72.4316H339.941L340.04 71.9054H339.882L339.912 71.7576H340.238L340.224 71.8385C340.315 71.7717 340.42 71.7312 340.535 71.7312C340.758 71.7312 340.884 71.8808 340.84 72.1148L340.781 72.4316H340.938Z" fill="#AAAAAA"/>
<path d="M341.62 71.8843C341.449 71.8843 341.304 72.0092 341.284 72.1694C341.265 72.326 341.367 72.4527 341.54 72.4527C341.664 72.4527 341.768 72.3876 341.809 72.289H341.984C341.926 72.4721 341.759 72.6005 341.531 72.6005C341.254 72.6005 341.08 72.4122 341.113 72.1694C341.145 71.9248 341.36 71.7382 341.62 71.7382C341.74 71.7382 341.831 71.7787 341.887 71.8438L341.904 71.7576H342.063L342.01 72.0497H341.844C341.828 71.9494 341.744 71.8843 341.62 71.8843Z" fill="#AAAAAA"/>
<path d="M342.718 71.7365C342.965 71.7365 343.139 71.9037 343.139 72.1271C343.139 72.3929 342.898 72.6058 342.62 72.6058C342.375 72.6058 342.196 72.4386 342.196 72.2099C342.196 71.9424 342.442 71.7365 342.718 71.7365ZM342.629 72.458C342.811 72.458 342.967 72.3102 342.967 72.1342C342.967 71.9952 342.867 71.8843 342.709 71.8843C342.529 71.8843 342.369 72.0268 342.369 72.2028C342.369 72.3436 342.469 72.458 342.629 72.458Z" fill="#AAAAAA"/>
<path d="M344.359 71.9054H344.244L343.774 72.5794H343.605L343.382 71.9054H343.265L343.295 71.7576H343.733L343.705 71.9054H343.562L343.711 72.3894L344.041 71.9054H343.911L343.941 71.7576H344.388L344.359 71.9054Z" fill="#AAAAAA"/>
<path d="M344.943 71.7365C345.199 71.7365 345.349 71.916 345.32 72.1606C345.316 72.1835 345.314 72.2081 345.307 72.231L345.303 72.2292V72.231H344.601C344.607 72.363 344.688 72.4633 344.861 72.4633C344.971 72.4633 345.058 72.4193 345.095 72.3612H345.279C345.208 72.509 345.039 72.6058 344.846 72.6058C344.575 72.6058 344.408 72.4175 344.44 72.1694C344.471 71.9265 344.677 71.7365 344.943 71.7365ZM344.934 71.8667C344.776 71.8667 344.661 71.974 344.62 72.1043H345.166C345.166 71.9635 345.084 71.8667 344.934 71.8667Z" fill="#AAAAAA"/>
<path d="M346.279 71.7453L346.248 71.9089C346.085 71.9125 345.955 71.9512 345.864 71.9864L345.78 72.4316H346.018L345.99 72.5794H345.426L345.453 72.4316H345.609L345.708 71.9054H345.55L345.58 71.7576H345.906L345.888 71.8561C345.988 71.7945 346.122 71.7453 346.279 71.7453Z" fill="#AAAAAA"/>
<path d="M346.695 71.3599C346.76 71.3599 346.816 71.4074 346.816 71.4725C346.816 71.5341 346.76 71.5816 346.695 71.5816C346.628 71.5816 346.575 71.5341 346.575 71.4725C346.575 71.4074 346.628 71.3599 346.695 71.3599ZM346.61 72.4316H346.766L346.738 72.5794H346.255L346.283 72.4316H346.439L346.537 71.9054H346.38L346.408 71.7576H346.734L346.61 72.4316Z" fill="#AAAAAA"/>
<path d="M348.086 72.4316L348.057 72.5794H347.574L347.604 72.4316H347.758L347.815 72.1236C347.845 71.967 347.769 71.8773 347.624 71.8773C347.533 71.8773 347.427 71.9265 347.338 72.0128L347.26 72.4316H347.418L347.388 72.5794H346.906L346.933 72.4316H347.089L347.188 71.9054H347.03L347.06 71.7576H347.386L347.372 71.8385C347.462 71.7717 347.568 71.7312 347.683 71.7312C347.906 71.7312 348.032 71.8808 347.988 72.1148L347.928 72.4316H348.086Z" fill="#AAAAAA"/>
<path d="M348.801 71.7365C348.962 71.7365 349.102 71.7717 349.252 71.8297L349.096 72.6111C349.052 72.8487 348.849 73 348.591 73C348.354 73 348.188 72.868 348.198 72.6762H348.37C348.372 72.7818 348.459 72.8539 348.6 72.8539C348.764 72.8539 348.897 72.7607 348.925 72.6111L348.946 72.5055C348.86 72.5759 348.762 72.6058 348.658 72.6058C348.42 72.6058 348.261 72.4474 348.261 72.2345C348.261 71.9547 348.521 71.7365 348.801 71.7365ZM348.684 72.458C348.803 72.458 348.91 72.3982 348.987 72.3049L349.066 71.916C348.964 71.8843 348.875 71.872 348.799 71.872C348.597 71.872 348.435 72.0339 348.435 72.2134C348.435 72.3506 348.534 72.458 348.684 72.458Z" fill="#AAAAAA"/>
<path d="M351.414 72.4316L351.386 72.5794H350.842L350.87 72.4316H351.083L351.015 72.1993H350.421L350.265 72.4316H350.454L350.426 72.5794H349.906L349.934 72.4316H350.068L350.679 71.5306H350.474L350.5 71.3828H350.946V71.3863L351.263 72.4316H351.414ZM350.972 72.055L350.831 71.5851L350.517 72.055H350.972Z" fill="#AAAAAA"/>
<path d="M351.899 72.4316H352.055L352.027 72.5794H351.544L351.572 72.4316H351.728L351.904 71.4778H351.749L351.776 71.33H352.103L351.899 72.4316Z" fill="#AAAAAA"/>
<path d="M352.822 71.7365C352.983 71.7365 353.122 71.7717 353.273 71.8297L353.117 72.6111C353.072 72.8487 352.87 73 352.612 73C352.374 73 352.209 72.868 352.218 72.6762H352.391C352.393 72.7818 352.48 72.8539 352.621 72.8539C352.784 72.8539 352.918 72.7607 352.946 72.6111L352.966 72.5055C352.881 72.5759 352.783 72.6058 352.679 72.6058C352.441 72.6058 352.281 72.4474 352.281 72.2345C352.281 71.9547 352.541 71.7365 352.822 71.7365ZM352.705 72.458C352.823 72.458 352.931 72.3982 353.007 72.3049L353.087 71.916C352.985 71.8843 352.896 71.872 352.82 71.872C352.617 71.872 352.456 72.0339 352.456 72.2134C352.456 72.3506 352.554 72.458 352.705 72.458Z" fill="#AAAAAA"/>
<path d="M353.955 71.7365C354.202 71.7365 354.377 71.9037 354.377 72.1271C354.377 72.3929 354.136 72.6058 353.857 72.6058C353.612 72.6058 353.434 72.4386 353.434 72.2099C353.434 71.9424 353.679 71.7365 353.955 71.7365ZM353.866 72.458C354.048 72.458 354.204 72.3102 354.204 72.1342C354.204 71.9952 354.104 71.8843 353.946 71.8843C353.766 71.8843 353.606 72.0268 353.606 72.2028C353.606 72.3436 353.707 72.458 353.866 72.458Z" fill="#AAAAAA"/>
<path d="M355.335 71.7453L355.304 71.9089C355.14 71.9125 355.01 71.9512 354.919 71.9864L354.836 72.4316H355.073L355.046 72.5794H354.481L354.509 72.4316H354.665L354.763 71.9054H354.606L354.635 71.7576H354.962L354.944 71.8561C355.044 71.7945 355.177 71.7453 355.335 71.7453Z" fill="#AAAAAA"/>
<path d="M356.408 72.4316L356.38 72.5794H356.053L356.07 72.5002C355.985 72.5706 355.888 72.6058 355.786 72.6058C355.548 72.6058 355.389 72.4474 355.389 72.2345C355.389 71.9547 355.649 71.7365 355.929 71.7365C356.09 71.7365 356.213 71.7717 356.382 71.8297L356.254 72.4316H356.408ZM355.812 72.458C355.934 72.458 356.048 72.3929 356.113 72.2926L356.193 71.916C356.087 71.8843 356.003 71.872 355.927 71.872C355.725 71.872 355.563 72.0339 355.563 72.2134C355.563 72.3506 355.662 72.458 355.812 72.458Z" fill="#AAAAAA"/>
<path d="M357.718 72.4316L357.689 72.5794H357.206L357.236 72.4316H357.39L357.447 72.1236C357.477 71.967 357.401 71.8773 357.256 71.8773C357.165 71.8773 357.059 71.9265 356.97 72.0128L356.892 72.4316H357.05L357.02 72.5794H356.538L356.566 72.4316H356.722L356.82 71.9054H356.662L356.692 71.7576H357.019L357.004 71.8385C357.095 71.7717 357.201 71.7312 357.316 71.7312C357.538 71.7312 357.665 71.8808 357.62 72.1148L357.561 72.4316H357.718Z" fill="#AAAAAA"/>
<path d="M358.749 72.4316H358.905L358.879 72.5794H358.552L358.567 72.502C358.482 72.5706 358.385 72.6058 358.283 72.6058C358.045 72.6058 357.888 72.4474 357.888 72.2345C357.888 71.9547 358.147 71.7365 358.426 71.7365C358.528 71.7365 358.615 71.7505 358.701 71.7752L358.756 71.4778H358.6L358.626 71.33H358.953L358.749 72.4316ZM358.309 72.458C358.428 72.458 358.534 72.3982 358.602 72.3066L358.677 71.9142C358.58 71.8843 358.498 71.872 358.424 71.872C358.222 71.872 358.06 72.0339 358.06 72.2134C358.06 72.3506 358.159 72.458 358.309 72.458Z" fill="#AAAAAA"/>
</svg>
